<?xml version="1.0" encoding="UTF-8"?>
<svg width="800" height="600" viewBox="0 0 800 600" fill="none" xmlns="http://www.w3.org/2000/svg">
    <defs>
        <!-- Gradients -->
        <linearGradient id="cloudGradient" x1="0%" y1="0%" x2="100%" y2="100%">
            <stop offset="0%" style="stop-color:#87CEEB"/>
            <stop offset="100%" style="stop-color:#4169E1"/>
        </linearGradient>
        <linearGradient id="serverGradient" x1="0%" y1="0%" x2="100%" y2="0%">
            <stop offset="0%" style="stop-color:#FFD700"/>
            <stop offset="100%" style="stop-color:#DAA520"/>
        </linearGradient>
        
        <!-- Filters -->
        <filter id="glow" x="-50%" y="-50%" width="200%" height="200%">
            <feGaussianBlur stdDeviation="3" result="coloredBlur"/>
            <feMerge>
                <feMergeNode in="coloredBlur"/>
                <feMergeNode in="SourceGraphic"/>
            </feMerge>
        </filter>
    </defs>

    <!-- Background Grid -->
    <g stroke="#E6E6FA" stroke-width="0.5" opacity="0.3">
        <path d="M0,100 L800,100 M0,200 L800,200 M0,300 L800,300 M0,400 L800,400 M0,500 L800,500"/>
        <path d="M100,0 L100,600 M200,0 L200,600 M300,0 L300,600 M400,0 L400,600 M500,0 L500,600 M600,0 L600,600 M700,0 L700,600"/>
    </g>

    <!-- Cloud Computing Visualization -->
    <g transform="translate(400,300)">
        <!-- Central Cloud -->
        <path d="M-60,-30 C-90,-30 -110,0 -100,30 C-120,40 -120,70 -100,80 C-110,110 -80,130 -50,120 C-30,140 10,140 30,120 C60,130 90,110 80,80 C100,70 100,40 80,30 C90,0 70,-30 40,-30 C30,-60 -20,-60 -30,-30 Z" 
              fill="url(#cloudGradient)" 
              filter="url(#glow)">
            <animate attributeName="d" 
                     values="M-60,-30 C-90,-30 -110,0 -100,30 C-120,40 -120,70 -100,80 C-110,110 -80,130 -50,120 C-30,140 10,140 30,120 C60,130 90,110 80,80 C100,70 100,40 80,30 C90,0 70,-30 40,-30 C30,-60 -20,-60 -30,-30 Z;
                             M-65,-35 C-95,-35 -115,5 -105,35 C-125,45 -125,75 -105,85 C-115,115 -85,135 -55,125 C-35,145 15,145 35,125 C65,135 95,115 85,85 C105,75 105,45 85,35 C95,5 75,-35 45,-35 C35,-65 -25,-65 -35,-35 Z;
                             M-60,-30 C-90,-30 -110,0 -100,30 C-120,40 -120,70 -100,80 C-110,110 -80,130 -50,120 C-30,140 10,140 30,120 C60,130 90,110 80,80 C100,70 100,40 80,30 C90,0 70,-30 40,-30 C30,-60 -20,-60 -30,-30 Z" 
                     dur="5s" 
                     repeatCount="indefinite"/>
        </path>

        <!-- Server Nodes -->
        <g class="servers">
            <rect x="-120" y="60" width="40" height="60" rx="5" fill="url(#serverGradient)" filter="url(#glow)">
                <animate attributeName="opacity" values="1;0.8;1" dur="2s" repeatCount="indefinite"/>
            </rect>
            <rect x="-40" y="60" width="40" height="60" rx="5" fill="url(#serverGradient)" filter="url(#glow)">
                <animate attributeName="opacity" values="1;0.8;1" dur="2s" repeatCount="indefinite" begin="0.7s"/>
            </rect>
            <rect x="40" y="60" width="40" height="60" rx="5" fill="url(#serverGradient)" filter="url(#glow)">
                <animate attributeName="opacity" values="1;0.8;1" dur="2s" repeatCount="indefinite" begin="1.4s"/>
            </rect>
        </g>

        <!-- Connection Lines -->
        <g class="connections" stroke="#4169E1" stroke-width="2">
            <path d="M-100,80 L-100,60">
                <animate attributeName="stroke-dasharray" values="0,100;100,0" dur="2s" repeatCount="indefinite"/>
            </path>
            <path d="M-20,80 L-20,60">
                <animate attributeName="stroke-dasharray" values="0,100;100,0" dur="2s" repeatCount="indefinite" begin="0.7s"/>
            </path>
            <path d="M60,80 L60,60">
                <animate attributeName="stroke-dasharray" values="0,100;100,0" dur="2s" repeatCount="indefinite" begin="1.4s"/>
            </path>
        </g>

        <!-- Data Particles -->
        <g class="particles">
            <circle cx="-100" cy="70" r="3" fill="#FFD700">
                <animate attributeName="cy" values="80;60;80" dur="2s" repeatCount="indefinite"/>
                <animate attributeName="opacity" values="1;0;1" dur="2s" repeatCount="indefinite"/>
            </circle>
            <circle cx="-20" cy="70" r="3" fill="#FFD700">
                <animate attributeName="cy" values="80;60;80" dur="2s" repeatCount="indefinite" begin="0.7s"/>
                <animate attributeName="opacity" values="1;0;1" dur="2s" repeatCount="indefinite" begin="0.7s"/>
            </circle>
            <circle cx="60" cy="70" r="3" fill="#FFD700">
                <animate attributeName="cy" values="80;60;80" dur="2s" repeatCount="indefinite" begin="1.4s"/>
                <animate attributeName="opacity" values="1;0;1" dur="2s" repeatCount="indefinite" begin="1.4s"/>
            </circle>
        </g>
    </g>
</svg>
